<mxfile host="65bd71144e">
    <diagram id="PT1vciqeFM7q19mdg8VT" name="Page-1">
        <mxGraphModel dx="230" dy="294" grid="1" gridSize="10" guides="1" tooltips="1" connect="1" arrows="1" fold="1" page="1" pageScale="1" pageWidth="827" pageHeight="1169" math="0" shadow="0">
            <root>
                <mxCell id="0"/>
                <mxCell id="1" parent="0"/>
                <mxCell id="4" value="User" style="swimlane;fontStyle=0;childLayout=stackLayout;horizontal=1;startSize=26;fillColor=none;horizontalStack=0;resizeParent=1;resizeParentMax=0;resizeLast=0;collapsible=1;marginBottom=0;" parent="1" vertex="1">
                    <mxGeometry x="320" y="330" width="150" height="170" as="geometry"/>
                </mxCell>
                <mxCell id="5" value="+ id: int&#10;+ createdAt: datetime&#10;+ updatedAt: datetime&#10;+ email: string (255)&#10;+ roles: json (255)&#10;+ password: string (255)&#10;+ firstname: string (255)&#10;+ lastname: string (255)&#10;+ username: string (255)" style="text;strokeColor=none;fillColor=none;align=left;verticalAlign=top;spacingLeft=4;spacingRight=4;overflow=hidden;rotatable=0;points=[[0,0.5],[1,0.5]];portConstraint=eastwest;" parent="4" vertex="1">
                    <mxGeometry y="26" width="150" height="144" as="geometry"/>
                </mxCell>
            </root>
        </mxGraphModel>
    </diagram>
</mxfile>